<?xml version="1.0" standalone="no"?>
<!DOCTYPE svg PUBLIC "-//W3C//DTD SVG 20010904//EN"
 "http://www.w3.org/TR/2001/REC-SVG-20010904/DTD/svg10.dtd">
<svg version="1.0" xmlns="http://www.w3.org/2000/svg"
 width="400.000000pt" height="400.000000pt" viewBox="0 0 400.000000 400.000000"
 preserveAspectRatio="xMidYMid meet">
<metadata>
Created by potrace 1.14, written by Peter Selinger 2001-2017
</metadata>
<g transform="translate(0.000000,400.000000) scale(0.100000,-0.100000)"
fill="#000000" stroke="none">
<path d="M1335 3957 c-141 -73 -217 -170 -231 -293 l-7 -55 -31 7 c-16 3 -48
14 -71 24 -64 27 -96 32 -127 19 -36 -15 -35 -22 5 -37 19 -7 51 -28 73 -47
l39 -34 -47 -1 c-27 0 -48 -4 -48 -8 0 -5 20 -23 45 -42 25 -19 45 -37 45 -42
0 -23 -90 -39 -136 -24 -18 5 -22 2 -28 -25 -3 -18 -26 -66 -49 -108 -108
-189 -110 -269 -21 -676 34 -154 114 -442 136 -491 13 -28 28 -34 92 -40 46
-5 48 -4 43 18 -3 13 -11 100 -18 195 -11 151 -10 190 5 325 41 360 98 528
223 650 113 110 278 139 503 86 86 -20 473 -17 579 5 101 21 164 21 256 2 213
-45 378 -208 435 -432 20 -74 20 -92 10 -438 -6 -198 -13 -373 -16 -388 l-7
-28 54 6 c30 3 59 6 66 7 15 2 25 27 75 203 124 438 155 641 137 895 -6 91
-13 167 -15 169 -2 2 -13 -4 -24 -14 -20 -18 -20 -18 -20 19 0 34 -2 36 -20
26 -11 -6 -20 -8 -20 -5 0 18 55 109 95 158 37 46 43 57 27 57 -23 0 -117 -32
-161 -55 -33 -16 -33 -16 -26 7 4 13 20 51 36 86 27 60 27 62 6 51 -12 -7 -35
-21 -50 -32 -16 -10 -29 -18 -31 -16 -1 2 -11 27 -21 54 -14 39 -39 70 -117
146 l-100 97 16 31 17 31 -37 0 c-21 0 -49 -9 -66 -21 l-30 -22 7 22 6 21
-688 0 -688 -1 -80 -42z"/>
<path d="M1250 2666 c-63 -16 -116 -51 -145 -94 -13 -20 -23 -38 -20 -40 2 -2
21 10 42 26 95 76 215 71 492 -19 141 -46 204 -50 209 -12 4 28 -20 43 -131
82 -179 62 -348 84 -447 57z"/>
<path d="M2493 2660 c-99 -22 -254 -73 -291 -96 -15 -10 -22 -23 -20 -37 5
-38 71 -34 211 12 271 90 395 95 490 19 21 -16 40 -28 43 -26 2 3 -9 23 -25
45 -67 93 -220 124 -408 83z"/>
<path d="M1297 2449 c-86 -20 -109 -55 -82 -126 33 -86 138 -144 254 -142 56
1 134 16 97 18 -19 1 -18 2 3 25 30 31 44 87 31 120 -7 20 -6 26 4 26 21 0 96
-54 116 -84 23 -36 36 -17 16 22 -20 39 -80 90 -130 112 -89 38 -220 50 -309
29z m103 -43 c0 -2 -7 -21 -16 -42 -21 -50 -12 -99 23 -137 l28 -30 -30 7
c-84 20 -145 68 -160 128 -5 21 -2 30 18 42 28 19 137 44 137 32z"/>
<path d="M2492 2450 c-115 -24 -232 -109 -232 -167 0 -21 3 -20 34 15 19 20
52 47 75 60 l40 23 -1 -55 c-1 -53 19 -106 42 -106 21 0 9 -20 -12 -21 -37 -2
52 -18 103 -18 81 -1 149 26 201 79 75 78 75 145 0 177 -44 18 -189 26 -250
13z m192 -55 c75 -12 91 -37 61 -95 -18 -34 -60 -65 -114 -85 -45 -15 -52 -8
-21 20 25 22 35 75 22 112 -6 15 -11 22 -11 16 -1 -18 -16 -16 -35 3 -20 20
-21 38 -1 31 8 -4 17 -2 21 4 3 5 13 8 22 5 10 -2 34 -7 56 -11z"/>
<path d="M1759 1536 c-88 -31 -152 -91 -218 -204 -49 -84 -88 -115 -141 -109
-19 2 -43 7 -53 11 -24 11 -50 -50 -38 -91 15 -51 29 -71 132 -181 61 -66 112
-132 134 -172 96 -184 220 -256 435 -254 215 2 330 72 429 259 18 34 76 109
135 172 124 134 147 178 122 238 -13 29 -20 36 -33 29 -10 -4 -34 -9 -53 -11
-54 -6 -91 24 -146 117 -58 97 -125 161 -197 189 -46 17 -79 19 -262 19 -142
0 -222 -4 -246 -12z m421 -147 c117 -19 182 -73 196 -164 17 -114 -87 -265
-182 -265 -65 0 -128 72 -163 186 -10 30 -21 55 -26 55 -5 0 -16 -25 -26 -55
-57 -184 -169 -238 -270 -129 -118 127 -94 307 47 353 87 29 305 39 424 19z"/>
<path d="M2845 395 c-93 -88 -308 -255 -485 -377 -24 -16 21 -17 808 -17 457
-1 832 1 832 4 0 21 -92 144 -143 192 -133 124 -300 181 -622 213 -60 6 -146
20 -189 31 -119 29 -123 28 -201 -46z"/>
<path d="M945 438 c-22 -5 -101 -18 -175 -28 -301 -43 -408 -74 -527 -151 -66
-43 -194 -173 -226 -228 l-18 -31 838 0 838 0 -110 58 c-197 103 -367 224
-478 341 -52 54 -64 58 -142 39z"/>
</g>
</svg>
